<?xml version="1.0" standalone="no"?><!DOCTYPE svg PUBLIC "-//W3C//DTD SVG 1.1//EN" "http://www.w3.org/Graphics/SVG/1.1/DTD/svg11.dtd"><svg t="1773830045365" class="icon" viewBox="0 0 1024 1024" version="1.1" xmlns="http://www.w3.org/2000/svg" p-id="1900" xmlns:xlink="http://www.w3.org/1999/xlink" width="200" height="200"><path d="M810.666667 106.666667v21.333333h-170.666667V106.666667a85.333333 85.333333 0 1 1 170.666667 0zM810.666667 896v21.333333a85.333333 85.333333 0 0 1-170.666667 0v-21.333333zM384 896v21.333333a85.333333 85.333333 0 1 1-170.666667 0v-21.333333zM384 106.666667v21.333333h-170.666667V106.666667a85.333333 85.333333 0 0 1 170.666667 0z" fill="#FFD0AA" p-id="1901"></path><path d="M896 708.266667V810.666667a85.333333 85.333333 0 0 1-85.333333 85.333333h-170.666667a85.333333 85.333333 0 0 1-85.333333-85.333333v-102.4a716.501333 716.501333 0 0 0 170.666666 17.066666 716.501333 716.501333 0 0 0 170.666667-17.066666zM896 298.666667c0 23.68-76.373333 42.666667-170.666667 42.666666s-170.666667-18.986667-170.666666-42.666666v-85.333334a85.333333 85.333333 0 0 1 85.333333-85.333333h170.666667a85.333333 85.333333 0 0 1 85.333333 85.333333zM469.333333 725.333333v85.333334a85.333333 85.333333 0 0 1-85.333333 85.333333h-170.666667a85.333333 85.333333 0 0 1-85.333333-85.333333v-85.333334c0-23.68 76.373333-42.666667 170.666667-42.666666s170.666667 18.986667 170.666666 42.666666zM469.333333 213.333333v102.4a716.501333 716.501333 0 0 0-170.666666-17.066666 716.501333 716.501333 0 0 0-170.666667 17.066666V213.333333a85.333333 85.333333 0 0 1 85.333333-85.333333h170.666667a85.333333 85.333333 0 0 1 85.333333 85.333333z" fill="#C49D8E" p-id="1902"></path><path d="M725.333333 533.333333c117.973333 0 213.333333-18.986667 213.333334-42.666666v192c0 9.813333-15.786667 18.56-42.666667 25.6a716.501333 716.501333 0 0 1-170.666667 17.066666 716.501333 716.501333 0 0 1-170.666666-17.066666c-26.88-7.04-42.666667-15.786667-42.666667-25.6V469.333333c0 35.413333 95.36 64 213.333333 64z" fill="#EFD4BF" p-id="1903"></path><path d="M725.333333 341.333333c94.293333 0 170.666667-18.986667 170.666667-42.666666a42.794667 42.794667 0 0 1 42.666667 42.666666v149.333334c0 23.68-95.36 42.666667-213.333334 42.666666s-213.333333-28.586667-213.333333-64v-128a42.986667 42.986667 0 0 1 42.666667-42.666666c0 23.68 76.373333 42.666667 170.666666 42.666666zM512 554.666667v128a42.986667 42.986667 0 0 1-42.666667 42.666666c0-23.68-76.373333-42.666667-170.666666-42.666666s-170.666667 18.986667-170.666667 42.666666a42.794667 42.794667 0 0 1-42.666667-42.666666v-149.333334c0-23.68 95.36-42.666667 213.333334-42.666666s213.333333 28.586667 213.333333 64z" fill="#FFD0AA" p-id="1904"></path><path d="M128 315.733333a716.501333 716.501333 0 0 1 170.666667-17.066666 716.501333 716.501333 0 0 1 170.666666 17.066666c26.88 7.04 42.666667 15.786667 42.666667 25.6v213.333334c0-35.413333-95.36-64-213.333333-64s-213.333333 18.986667-213.333334 42.666666v-192c0-9.813333 15.786667-18.56 42.666667-25.6z" fill="#EFD4BF" p-id="1905"></path><path d="M298.666667 1024a106.56 106.56 0 0 1-106.666667-106.666667v-21.333333h42.666667v21.333333a64 64 0 0 0 128 0v-21.333333h42.666666v21.333333a106.794667 106.794667 0 0 1-106.666666 106.666667zM405.333333 128h-42.666666V106.666667a64 64 0 1 0-128 0v21.333333H192V106.666667a106.666667 106.666667 0 0 1 213.333333 0z" fill="#2A3244" p-id="1906"></path><path d="M490.666667 320h-42.666667v-106.666667a64 64 0 0 0-64-64h-170.666667a64 64 0 0 0-64 64v106.666667H106.666667v-106.666667a106.794667 106.794667 0 0 1 106.666666-106.666666h170.666667a106.794667 106.794667 0 0 1 106.666667 106.666666zM449.322667 730.197333C442.197333 721.344 389.056 704 298.666667 704s-143.530667 17.344-150.677334 26.197333A8.64 8.64 0 0 0 149.333333 725.333333H106.666667c0-60.906667 160-64 192-64s192 3.093333 192 64h-42.666667a8.896 8.896 0 0 0 1.322667 4.864zM533.333333 554.666667h-42.666666c-3.136-11.541333-67.008-42.666667-192-42.666667-118.336 0-184.789333 18.218667-194.133334 27.946667A10.410667 10.410667 0 0 0 106.666667 533.333333H64c0-57.770667 164.096-64 234.666667-64 87.168 0 234.666667 17.962667 234.666666 85.333334z" fill="#2A3244" p-id="1907"></path><path d="M384 917.333333h-170.666667a106.794667 106.794667 0 0 1-106.666666-106.666666v-67.648A64.128 64.128 0 0 1 64 682.666667V341.333333c0-30.890667 42.666667-42.048 58.581333-46.229333A736.618667 736.618667 0 0 1 298.666667 277.333333a737.301333 737.301333 0 0 1 176.213333 17.792c15.893333 4.266667 58.453333 15.317333 58.453333 46.208h-42.666666a10.154667 10.154667 0 0 0 2.133333 6.4 72.021333 72.021333 0 0 0-28.821333-11.477333A705.216 705.216 0 0 0 298.666667 320a704.533333 704.533333 0 0 0-165.12 16.341333 100.117333 100.117333 0 0 0-26.88 10.005334V682.666667a21.333333 21.333333 0 0 0 21.333333 21.333333 21.333333 21.333333 0 0 1 21.333333 21.333333v85.333334a64 64 0 0 0 64 64h170.666667a64 64 0 0 0 64-64v-85.333334a21.333333 21.333333 0 0 1 21.333333-21.333333 20.416 20.416 0 0 0 14.805334-6.144A20.864 20.864 0 0 0 490.666667 682.666667h42.666666a62.613333 62.613333 0 0 1-19.050666 45.354666 61.056 61.056 0 0 1-23.616 15.04V810.666667a106.794667 106.794667 0 0 1-106.666667 106.666666zM618.666667 234.666667h42.666666v42.666666h-42.666666zM704 170.666667h42.666667v42.666666h-42.666667zM789.333333 256h42.666667v42.666667h-42.666667zM618.666667 426.666667h42.666666v42.666666h-42.666666zM704 384h42.666667v42.666667h-42.666667zM789.333333 448h42.666667v42.666667h-42.666667zM618.666667 618.666667h42.666666v42.666666h-42.666666zM704 576h42.666667v42.666667h-42.666667zM789.333333 640h42.666667v42.666667h-42.666667zM768 789.333333h42.666667v42.666667h-42.666667zM640 789.333333h42.666667v42.666667h-42.666667zM832 128h-42.666667V106.666667a64 64 0 0 0-128 0v21.333333h-42.666666V106.666667a106.666667 106.666667 0 1 1 213.333333 0zM725.333333 1024a106.794667 106.794667 0 0 1-106.666666-106.666667v-21.333333h42.666666v21.333333a64 64 0 1 0 128 0v-21.333333h42.666667v21.333333a106.56 106.56 0 0 1-106.666667 106.666667z" fill="#2A3244" p-id="1908"></path><path d="M810.666667 917.333333h-170.666667a106.794667 106.794667 0 0 1-106.666667-106.666666v-106.666667h42.666667v106.666667a64 64 0 0 0 64 64h170.666667a64 64 0 0 0 64-64v-106.666667h42.666666v106.666667a106.794667 106.794667 0 0 1-106.666666 106.666666zM725.333333 362.666667c-32 0-192-3.093333-192-64h42.666667a8.64 8.64 0 0 0-1.344-4.864C581.802667 302.656 634.944 320 725.333333 320s143.530667-17.344 150.656-26.197333A8.896 8.896 0 0 0 874.666667 298.666667h42.666666c0 60.906667-160 64-192 64zM725.333333 554.666667c-87.168 0-234.666667-17.962667-234.666666-85.333334h42.666666c3.136 11.541333 67.008 42.666667 192 42.666667 118.336 0 184.789333-18.218667 194.133334-27.946667a10.410667 10.410667 0 0 0-2.133334 6.613334h42.666667c0 57.770667-164.096 64-234.666667 64z" fill="#2A3244" p-id="1909"></path><path d="M725.333333 746.666667a737.301333 737.301333 0 0 1-176.213333-17.792C533.333333 724.714667 490.666667 713.557333 490.666667 682.666667V341.333333a62.613333 62.613333 0 0 1 19.050666-45.354666 61.056 61.056 0 0 1 23.616-14.933334V213.333333a106.794667 106.794667 0 0 1 106.666667-106.666666h170.666667a106.794667 106.794667 0 0 1 106.666666 106.666666v67.648A64.128 64.128 0 0 1 960 341.333333v341.333334c0 30.826667-42.410667 42.005333-58.496 46.229333A738.410667 738.410667 0 0 1 725.333333 746.666667z m-192-69.013334a100.394667 100.394667 0 0 0 26.752 9.984A705.216 705.216 0 0 0 725.333333 704a704.533333 704.533333 0 0 0 165.12-16.341333h0.128A100.394667 100.394667 0 0 0 917.333333 677.653333V341.333333a21.333333 21.333333 0 0 0-21.333333-21.333333 21.333333 21.333333 0 0 1-21.333333-21.333333v-85.333334a64 64 0 0 0-64-64h-170.666667a64 64 0 0 0-64 64v85.333334a21.333333 21.333333 0 0 1-21.333333 21.333333 20.416 20.416 0 0 0-14.805334 6.144A20.864 20.864 0 0 0 533.333333 341.333333z" fill="#2A3244" p-id="1910"></path></svg>