<?xml version="1.0" standalone="no"?><!DOCTYPE svg PUBLIC "-//W3C//DTD SVG 1.1//EN" "http://www.w3.org/Graphics/SVG/1.1/DTD/svg11.dtd"><svg t="1773830038321" class="icon" viewBox="0 0 1024 1024" version="1.1" xmlns="http://www.w3.org/2000/svg" p-id="1744" xmlns:xlink="http://www.w3.org/1999/xlink" width="200" height="200"><path d="M213.333333 874.666667v85.333333a42.794667 42.794667 0 0 1-42.666666 42.666667H128a42.794667 42.794667 0 0 1-42.666667-42.666667v-85.333333zM213.333333 64v85.333333H85.333333V64a42.794667 42.794667 0 0 1 42.666667-42.666667h42.666667a42.794667 42.794667 0 0 1 42.666666 42.666667z" fill="#F8FAFD" p-id="1745"></path><path d="M277.333333 832a42.794667 42.794667 0 0 1-42.666666 42.666667H64a42.794667 42.794667 0 0 1-42.666667-42.666667V192a42.794667 42.794667 0 0 1 42.666667-42.666667h170.666667a42.794667 42.794667 0 0 1 42.666666 42.666667v640z" fill="#C49D8E" p-id="1746"></path><path d="M277.333333 810.666667V213.333333h640a85.333333 85.333333 0 1 1 0 170.666667h-21.333333a42.794667 42.794667 0 0 0-42.666667 42.666667 42.986667 42.986667 0 0 0 42.666667 42.666666h32a53.333333 53.333333 0 1 1 0 106.666667H874.666667a64 64 0 0 0 0 128h74.666666a53.333333 53.333333 0 1 1 0 106.666667z" fill="#FFD0AA" p-id="1747"></path><path d="M554.666667 405.333333h234.666666v42.666667H554.666667zM234.666667 896h-21.333334v-42.666667h21.333334a21.333333 21.333333 0 0 0 21.333333-21.333333V192a21.333333 21.333333 0 0 0-21.333333-21.333333h-21.333334V128h21.333334a64 64 0 0 1 64 64v640a64 64 0 0 1-64 64zM85.333333 896H64a64 64 0 0 1-64-64V192a64 64 0 0 1 64-64h21.333333v42.666667H64a21.333333 21.333333 0 0 0-21.333333 21.333333v640a21.333333 21.333333 0 0 0 21.333333 21.333333h21.333333z" fill="#2A3244" p-id="1748"></path><path d="M213.333333 170.666667H85.333333a21.333333 21.333333 0 0 1-21.333333-21.333334V64a64 64 0 0 1 64-64h42.666667a64 64 0 0 1 64 64v85.333333a21.333333 21.333333 0 0 1-21.333334 21.333334zM106.666667 128h85.333333V64a21.333333 21.333333 0 0 0-21.333333-21.333333H128a21.333333 21.333333 0 0 0-21.333333 21.333333zM170.666667 1024H128a64 64 0 0 1-64-64v-85.333333a21.333333 21.333333 0 0 1 21.333333-21.333334h128a21.333333 21.333333 0 0 1 21.333334 21.333334v85.333333a64 64 0 0 1-64 64z m-64-128v64a21.333333 21.333333 0 0 0 21.333333 21.333333h42.666667a21.333333 21.333333 0 0 0 21.333333-21.333333v-64zM949.333333 832H277.333333v-42.666667h672a32 32 0 0 0 0-64H874.666667a85.333333 85.333333 0 0 1 0-170.666666h53.333333a32 32 0 0 0 0-64H896a64.32 64.32 0 0 1-64-64 64 64 0 0 1 64-64h21.333333a64 64 0 0 0 0-128H277.333333V192h640a106.666667 106.666667 0 1 1 0 213.333333h-21.333333a21.333333 21.333333 0 0 0-21.333333 21.333334 20.458667 20.458667 0 0 0 6.122666 14.784A20.842667 20.842667 0 0 0 896 448h32a74.666667 74.666667 0 1 1 0 149.333333H874.666667a42.666667 42.666667 0 0 0 0 85.333334h74.666666a74.666667 74.666667 0 1 1 0 149.333333z" fill="#2A3244" p-id="1749"></path><path d="M597.333333 682.666667h149.333334v42.666666h-149.333334zM469.333333 554.666667h277.333334v42.666666H469.333333zM341.333333 277.333333h42.666667v42.666667h-42.666667zM426.666667 277.333333h42.666666v42.666667h-42.666666zM341.333333 362.666667h42.666667v42.666666h-42.666667z" fill="#2A3244" p-id="1750"></path></svg>