<?xml version="1.0" standalone="no"?><!DOCTYPE svg PUBLIC "-//W3C//DTD SVG 1.1//EN" "http://www.w3.org/Graphics/SVG/1.1/DTD/svg11.dtd"><svg t="1773836616204" class="icon" viewBox="0 0 1025 1024" version="1.1" xmlns="http://www.w3.org/2000/svg" p-id="2652" xmlns:xlink="http://www.w3.org/1999/xlink" width="200.1953125" height="200"><path d="M512.20349 511.783216m-146.018095 0a142.796 142.796 0 1 0 292.036189 0 142.796 142.796 0 1 0-292.036189 0Z" fill="#FE8636" p-id="2653"></path><path d="M512.871225 0c-282.769711 0-512 229.230289-512 512 0 282.769711 229.230289 512 512 512 282.769711 0 512-229.230289 512-512C1024.871225 229.230289 795.640936 0 512.871225 0zM682.90322 322.583253c36.293875-36.765278 69.067062-68.732683 105.362982-105.498983 7.007633-5.131228 17.308946-3.080986 22.390068 1.998091 7.904422 8.811437 5.4789 17.740468 1.1964 24.062984-18.886763 19.097411-104.09398 103.585766-104.09398 103.585766-7.136476 2.846819-12.611286 4.362259-21.672228-2.139205C680.077875 338.582294 679.767015 330.40587 682.90322 322.583253zM495.310728 110.180283c1.326266-8.584427 10.059988-14.419179 17.243502-14.419179 11.821866 0.640125 16.420338 8.6693 17.861131 16.168787 0.149294 26.858674-0.35892 146.851485-0.35892 146.851485-3.033948 7.059784-5.833729 12.000815-16.837544 13.810754-8.498532 0-14.499962-5.560705-17.81307-13.311742C495.073493 207.620437 495.644084 161.842277 495.310728 110.180283zM215.532017 219.338001c6.009611-6.008588 14.186035-6.319447 22.008652-3.18222 36.765278 36.293875 68.732683 69.067062 105.498983 105.362982 5.13225 7.007633 3.082009 17.308946-1.998091 22.389046-8.811437 7.905445-17.740468 5.4789-24.061961 1.1964-19.097411-18.886763-103.585766-104.09398-103.585766-104.09398C210.545993 233.874776 209.031576 228.399966 215.532017 219.338001zM104.818978 533.945253c-8.584427-1.326266-14.419179-10.058965-14.419179-17.244525 0.640125-11.820844 8.6693-16.419315 16.168787-17.861131 26.858674-0.148272 146.851485 0.35892 146.851485 0.35892 7.059784 3.033948 12.000815 5.833729 13.811776 16.837544 0 8.498532-5.561727 14.498939-13.312765 17.81307C202.260155 534.181465 156.481995 533.612919 104.818978 533.945253zM341.792124 714.189598c-18.886763 19.097411-104.092957 103.586788-104.092957 103.586788-7.136476 2.846819-12.611286 4.362259-21.673251-2.139205-6.008588-6.009611-6.319447-14.186035-3.18222-22.008652 36.293875-36.765278 69.067062-68.732683 105.362982-105.498983 7.007633-5.13225 17.308946-3.082009 22.389046 1.998091C348.501168 698.939074 346.074623 707.868105 341.792124 714.189598zM530.057463 923.862321c-3.033948 7.058761-5.833729 12.000815-16.837544 13.811776-8.498532 0-14.499962-5.560705-17.81307-13.312765-0.333356-51.660972 0.236212-97.439131-0.096121-149.102149 1.326266-8.583405 10.059988-14.418157 17.243502-14.418157 11.821866 0.641148 16.420338 8.6693 17.861131 16.168787C530.564655 803.869511 530.057463 923.862321 530.057463 923.862321zM512.063399 693.619694c-100.754285 0-182.430587-81.676302-182.430587-182.429565 0-100.75224 81.677325-182.429565 182.430587-182.429565 100.75224 0 182.42752 81.677325 182.42752 182.429565C694.490919 611.943391 612.815639 693.619694 512.063399 693.619694zM811.944702 814.953086c-8.811437 7.904422-17.741491 5.4789-24.062984 1.1964-19.096389-18.88574-103.585766-104.09398-103.585766-104.09398-2.846819-7.135454-4.362259-12.610263 2.139205-21.672228 6.009611-6.008588 14.185012-6.319447 22.008652-3.181198 36.764255 36.292853 68.732683 69.067062 105.498983 105.36196C819.07402 799.571673 817.024801 809.872986 811.944702 814.953086zM921.003231 533.849132c-51.660972 0.332333-97.438109-0.236212-149.101126 0.096121-8.58545-1.326266-14.419179-10.058965-14.419179-17.244525 0.640125-11.820844 8.6693-16.419315 16.168787-17.861131 26.859697-0.148272 146.851485 0.35892 146.851485 0.35892 7.059784 3.033948 12.000815 5.833729 13.811776 16.837544C934.315996 524.534593 928.754269 530.535001 921.003231 533.849132z" fill="#FE8636" p-id="2654"></path></svg>