<?xml version="1.0" standalone="no"?><!DOCTYPE svg PUBLIC "-//W3C//DTD SVG 1.1//EN" "http://www.w3.org/Graphics/SVG/1.1/DTD/svg11.dtd"><svg t="1773836749107" class="icon" viewBox="0 0 1024 1024" version="1.1" xmlns="http://www.w3.org/2000/svg" p-id="4684" xmlns:xlink="http://www.w3.org/1999/xlink" width="200" height="200"><path d="M386.08 789.8l28.01 141.22c0.59 2.92 3.74 5.07 7.45 5.07h405.77c3.71 0 6.86-2.15 7.45-5.07l83.4-420.55c0.01-0.05-0.06-0.1-0.05-0.15 0.18-1.05 0.08-2.13-0.46-3.15l-83.4-156.2c-1.18-2.21-3.91-3.65-6.93-3.65 0 0 4.54 21.5-39.55 43.52-116.88 37.99-242.08 29.42-325.89 0-41.4-13.45-40.33-43.52-40.33-43.52-3.02 0-5.75 1.44-6.93 3.65l-83.4 156.2c-0.54 1.02-0.64 2.09-0.46 3.15 0.01 0.05-0.06 0.1-0.05 0.15l12.73 64.18m24.31 122.72l5.19 26.15m-12.28-61.9l7.09 35.76" fill="#F1CB08" p-id="4685"></path><path d="M747.42 936.09h79.89c3.71 0 6.86-2.15 7.45-5.07l83.4-420.55c0.01-0.05-0.06-0.1-0.05-0.15 0.18-1.05 0.08-2.13-0.46-3.15l-83.4-156.2c-1.18-2.21-3.91-3.65-6.93-3.65 0 0-10.54 33.1-39.55 43.52-23.59 8.48-25.07 0-25.07 0l63.96 158.62-79.24 386.63z" fill="#CEA600" p-id="4686"></path><path d="M461.97 225.35c-0.54-22.68-3.9-97.04-24.97-137.44h376.02s-42.99 103.03-49.35 137.36" fill="#99CEAD" p-id="4687"></path><path d="M687.59 225.35c-0.54-22.68 21.17-97.04 0.1-137.44h125.34s-42.99 103.03-49.35 137.36" fill="#61BE97" p-id="4688"></path><path d="M794.02 272.22h-339.2c-13.54 0-25.33-2.5-28.62-6.07l-29.5-32.04c-2.2-2.39-0.22-4.93 5.37-6.87 5.59-1.94 14.16-3.08 23.24-3.08H823.5c9.08 0 17.66 1.14 23.24 3.08 5.6 1.94 7.58 4.48 5.37 6.87l-29.5 32.04c-3.26 3.57-15.06 6.07-28.59 6.07z" fill="#9BD1E2" p-id="4689"></path><path d="M794.02 272.22s-12.47-0.55-26.4-0.15c-19.18 0.56-41.13 2.04-37.05 1.15 6.2-1.35 6.94-39.55 7.03-48.66 0.01-0.75 23.56-0.4 23.56-0.4h62.35c9.08 0 17.66 1.14 23.24 3.08 5.6 1.94 7.58 4.48 5.37 6.87l-29.5 32.04c-3.27 3.57-15.07 6.07-28.6 6.07z" fill="#72B2C1" p-id="4690"></path><path d="M822.9 359.25c3.65-8.19 7.42-11.93 4.4-11.93h-10.98l-45.23-75.34-293.69 0.57-44.64 74.87-11.23-0.1c-3.02 0-2.77 15.1 12.5 28.26 16.01 13.25 48 26.89 123.85 37.13 13.03 1.39 29.43 1.63 45.38 2.73 126.41 9.9 228.59-39.04 219.64-56.19z" fill="#F8DB97" p-id="4691"></path><path d="M828.31 347.32h-11.98l-45.23-75.34s-83.62-1.29-68.08 0.57c9.19 21.38 25.84 67.06 31.69 133.06 0.27 3.07 98.05-17.19 93.6-58.29z" fill="#D8B475" p-id="4692"></path><path d="M262.31 676.17c-24.09 3.47-62.25-82.85-151.99-52.78-4.1 1.38-5.82 6.22-3.38 9.67 16.72 23.6 78.1 99.17 159.09 66.88l-3.72-23.77z" fill="#B6FBC8" p-id="4693"></path><path d="M287.59 703.84c18.56-13.17-13.49-91.88 55.95-133.82 5.95-3.6 12.65-6.92 20.2-9.91 0 0 34.28 125.17-61.23 163.05l-14.92-19.32z" fill="#B6FBC8" p-id="4694"></path><path d="M222.91 612.28s9.9-98.63-71.92-135.45c0 0-17.34 51.1 14.89 95.06l57.03 40.39z" fill="#B6FBC8" p-id="4695"></path><path d="M263.59 846.09c-49.58 7.14-81.82-36.82-85.54-60.59 0 0 123.95-17.85 152.46 2.35 0 0-17.34 51.1-66.92 58.24z" fill="#B6FBC8" p-id="4696"></path><path d="M429.58 762.87c29.72-38.7 4.21-86.55-15.98-100.8 0 0-74.31 96.76-68.99 130.36 0.01 0 55.24 9.15 84.97-29.56z" fill="#B6FBC8" p-id="4697"></path><path d="M563.89 681.23a125.34 120.16 0 1 0 250.68 0 125.34 120.16 0 1 0-250.68 0Z" fill="#E1F2FA" p-id="4698"></path><path d="M636.52 693.25h105.93c5.36 0 9.18 5.01 7.34 9.83-7.56 19.73-28.84 62.26-71.89 62.26-39.36 0-47.82-44.44-49.64-63.54-0.45-4.65 3.38-8.55 8.26-8.55z" fill="#D8788C" p-id="4699"></path></svg>