<?xml version="1.0" standalone="no"?><!DOCTYPE svg PUBLIC "-//W3C//DTD SVG 1.1//EN" "http://www.w3.org/Graphics/SVG/1.1/DTD/svg11.dtd"><svg t="1773830230645" class="icon" viewBox="0 0 1024 1024" version="1.1" xmlns="http://www.w3.org/2000/svg" p-id="7311" xmlns:xlink="http://www.w3.org/1999/xlink" width="200" height="200"><path d="M711.1 474.6c0 120.2-97.9 217.7-218.6 217.7-56.1 0-107.2-21-145.9-55.6l-98 108.9c64.7 57.8 150.2 93 244 93 201.8 0 365.5-162.9 365.5-364 0-201-163.6-364-365.5-364v146.2c120.6 0.1 218.5 97.6 218.5 217.8z" fill="#FFECB6" p-id="7312"></path><path d="M127 474.6c0 107.6 46.9 204.4 121.5 271l98-108.9c-44.6-39.9-72.7-97.7-72.7-162.1 0-120.2 97.9-217.7 218.6-217.7V110.7C290.6 110.7 127 273.6 127 474.6z" fill="#F4BA64" p-id="7313"></path><path d="M437.2 458c-19.5 0-35.3-15.8-35.3-35.2s15.9-35.2 35.3-35.2c19.5 0 35.3 15.8 35.3 35.2S456.7 458 437.2 458z m0-51.2c-8.9 0-16.1 7.2-16.1 16s7.2 16 16.1 16c8.9 0 16.1-7.2 16.1-16-0.1-8.9-7.3-16-16.1-16z" fill="#FFDB69" p-id="7314"></path><path d="M547.8 555.3c-19.5 0-35.3-15.8-35.3-35.2 0-19.4 15.9-35.2 35.3-35.2 19.5 0 35.3 15.8 35.3 35.2 0 19.4-15.8 35.2-35.3 35.2z m0-51.2c-8.9 0-16.1 7.2-16.1 16s7.2 16 16.1 16 16.1-7.2 16.1-16c-0.1-8.8-7.3-16-16.1-16z" fill="#F7931E" p-id="7315"></path><path d="M561.9 416.2l-131.1 131c-3.9 3.9-10.3 3.9-14.1 0-3.9-3.9-3.9-10.3 0-14.1l131-131.1c3.9-3.9 10.3-3.9 14.1 0 4 3.9 4 10.3 0.1 14.2z" fill="#F4BA64" p-id="7316"></path><path d="M523.9 837.1c-204.7 0-371.1-165.8-371.1-369.6S319.2 97.9 523.9 97.9c106.8 0 156.1 31.2 188.7 51.9l3.3 2.1c4.5 2.8 5.8 8.8 3 13.2-2.8 4.5-8.8 5.8-13.3 3l-3.4-2.1c-30.8-19.5-77.3-48.9-178.4-48.9-194 0-351.9 157.2-351.9 350.4s157.8 350.4 351.9 350.4 351.9-157.2 351.9-350.4c0-112.8-49.4-186-86.5-231.2-3.4-4.1-2.8-10.1 1.4-13.5 4.1-3.4 10.2-2.8 13.6 1.4 39 47.5 90.9 124.4 90.9 243.4-0.1 203.7-166.6 369.5-371.2 369.5z" fill="" p-id="7317"></path><path d="M747.2 193.9a9.6 9.6 0 1 0 19.2 0 9.6 9.6 0 1 0-19.2 0Z" fill="" p-id="7318"></path><path d="M354.1 612.4L218 748c70.3 70 167.4 113.4 274.5 113.4V669.6c-54 0-102.9-21.9-138.4-57.2z" fill="#F7931E" p-id="7319"></path></svg>