<?xml version="1.0" standalone="no"?><!DOCTYPE svg PUBLIC "-//W3C//DTD SVG 1.1//EN" "http://www.w3.org/Graphics/SVG/1.1/DTD/svg11.dtd"><svg t="1773830014164" class="icon" viewBox="0 0 1024 1024" version="1.1" xmlns="http://www.w3.org/2000/svg" p-id="1577" xmlns:xlink="http://www.w3.org/1999/xlink" width="200" height="200"><path d="M21.333542 639.999867h981.333129v85.333315H21.333542z" fill="#FFBDC7" p-id="1578"></path><path d="M213.333502 962.133133V1002.666458H21.333542V703.999853h191.99996v258.13328z" fill="#A9DBEF" p-id="1579"></path><path d="M513.49344 817.066496l1.706666 1.706667 86.399982 41.813324 273.279943-131.839972a47.74399 47.74399 0 0 1 17.919996-3.413333 46.933324 46.933324 0 0 1 32.42666 12.586664 41.365325 41.365325 0 0 1 13.439997 30.506661 42.666658 42.666658 0 0 1-23.466661 37.546658L579.840093 1002.666458H256.426827L213.333502 962.133133v-199.466625h1.706667L257.28016 725.333182h127.14664A40.149325 40.149325 0 0 1 426.666791 762.666508v18.773329l52.906656-46.71999a48.917323 48.917323 0 0 1 63.57332 0 36.543992 36.543992 0 0 1 0 56.106655z" fill="#FCCAB7" p-id="1580"></path><path d="M247.466828 127.999973a148.842636 148.842636 0 0 1 72.533319 127.999974l0.64 5.333332C244.906829 271.14661 192.000173 293.546606 192.000173 319.999933a170.965298 170.965298 0 0 0-120.746641 49.91999L66.133533 362.666591A149.141302 149.141302 0 0 1 164.053512 107.093311C166.186845 106.879978 168.533512 106.666644 170.666844 106.666644a146.815969 146.815969 0 0 1 76.799984 21.333329z" fill="#EFD4BF" p-id="1581"></path><path d="M279.466822 127.999973a149.141302 149.141302 0 0 1 252.159947 85.973316c-6.399999-0.426667-13.013331-0.64-19.626662-0.64-58.879988 0-106.666644 18.986663-106.666645 42.666658a655.573197 655.573197 0 0 0-84.693315 5.333332L320.000147 255.999947a148.842636 148.842636 0 0 0-72.533319-127.999974h31.999994z" fill="#EFD4BF" p-id="1582"></path><path d="M277.333489 383.99992a170.666631 170.666631 0 0 1 170.666631 170.666631 85.333316 85.333316 0 0 1-85.333316 85.333316H106.666858a85.333316 85.333316 0 0 1-85.333316-85.333316 172.799964 172.799964 0 0 1 1.28-21.119995A170.666631 170.666631 0 0 1 192.000173 383.99992z" fill="#FFD0AA" p-id="1583"></path><path d="M678.613405 451.199906A106.666644 106.666644 0 1 1 746.666724 639.999867H362.666804a85.333316 85.333316 0 0 0 85.333316-85.333316 169.919965 169.919965 0 0 0-55.893322-126.293307L448.00012 426.666578a106.026645 106.026645 0 0 1 74.666651 30.719993c2.133333-2.133333 4.266666-4.053332 6.613332-6.186665a106.367978 106.367978 0 0 1 142.71997 6.186665c2.133333-2.133333 4.266666-4.053332 6.613332-6.186665z" fill="#FFD0AA" p-id="1584"></path><path d="M832.00004 319.999933c0-35.413326-95.35998-63.999987-213.333289-63.999986 0-20.906662-37.546659-38.186659-87.039982-42.026658-6.399999-0.426667-13.013331-0.64-19.626662-0.64-58.879988 0-106.666644 18.986663-106.666645 42.666658a655.573197 655.573197 0 0 0-84.693315 5.333332C244.906829 271.14661 192.000173 293.546606 192.000173 319.999933a170.431964 170.431964 0 0 0-170.666631 170.666631v42.666658l1.28 0.213334A170.666631 170.666631 0 0 1 192.000173 383.99992h85.333316a170.282631 170.282631 0 0 1 114.773309 44.373324L448.00012 426.666578a106.026645 106.026645 0 0 1 74.666651 30.719993c2.133333-2.133333 4.266666-4.053332 6.613332-6.186665a106.367978 106.367978 0 0 1 142.71997 6.186665c2.133333-2.133333 4.266666-4.053332 6.613332-6.186665A106.666644 106.666644 0 1 1 746.666724 639.999867h170.666632a85.333316 85.333316 0 0 0 85.333315-85.333316v-63.999987a170.666631 170.666631 0 0 0-170.666631-170.666631z" fill="#C49D8E" p-id="1585"></path><path d="M832.00004 234.666618h-42.666658a81.685316 81.685316 0 0 1 13.738664-46.634657A39.274658 39.274658 0 0 0 810.666711 163.626633c0-7.231998-3.327999-10.666664-13.674664-19.199996A65.066653 65.066653 0 0 1 768.000053 92.373314a64.362653 64.362653 0 0 1 29.141328-51.839989c10.175998-8.533332 13.525331-11.946664 13.52533-19.199996h42.666658a65.36532 65.36532 0 0 1-28.927994 51.967989c-10.858664 8.895998-13.738664 12.223997-13.738664 19.071996 0 7.231998 3.327999 10.666664 13.674664 19.199996A65.066653 65.066653 0 0 1 853.333369 163.626633a81.279983 81.279983 0 0 1-13.695997 46.39999A39.637325 39.637325 0 0 0 832.00004 234.666618zM106.666858 661.333196H0.000213v-21.333329a21.333329 21.333329 0 0 1 21.333329-21.333329h85.333316zM362.666804 618.666538h85.333316v42.666658h-85.333316zM1002.666671 746.666511H618.666751v-42.666658h362.666591v-42.666657h-63.999986v-42.666658h85.333315a21.333329 21.333329 0 0 1 21.333329 21.333329v85.333315a21.333329 21.333329 0 0 1-21.333329 21.333329z" fill="#2A3244" p-id="1586"></path><path d="M362.666804 661.333196H106.666858a106.794644 106.794644 0 0 1-106.666645-106.666645 195.135959 195.135959 0 0 1 1.429333-23.765328A192.25596 192.25596 0 0 1 192.000173 362.666591h85.333316a191.74396 191.74396 0 0 1 129.109306 49.898656A192.12796 192.12796 0 0 1 469.333449 554.666551a106.794644 106.794644 0 0 1-106.666645 106.666645zM192.000173 405.333249a149.525302 149.525302 0 0 0-148.223969 130.837306A151.615968 151.615968 0 0 0 42.666871 554.666551a63.999987 63.999987 0 0 0 63.999987 63.999987h255.999946a63.999987 63.999987 0 0 0 63.999987-63.999987 149.333302 149.333302 0 0 0-48.89599-110.48531A148.991969 148.991969 0 0 0 277.333489 405.333249z" fill="#2A3244" p-id="1587"></path><path d="M917.333356 661.333196h-170.666632v-42.666658h170.666632a63.999987 63.999987 0 0 0 63.999986-63.999987v-63.999987a149.525302 149.525302 0 0 0-149.333302-149.333302 21.333329 21.333329 0 0 1-21.333329-21.333329c-3.135999-11.541331-67.007986-42.666658-191.99996-42.666657a21.333329 21.333329 0 0 1-21.333329-21.333329c-1.792-3.285333-22.293329-17.279996-67.349319-20.757329A272.93861 272.93861 0 0 0 512.000107 234.666618c-53.077322 0-82.687983 16.042663-85.525316 22.442662A20.245329 20.245329 0 0 1 405.333462 277.333276a633.365201 633.365201 0 0 0-81.919983 5.141332c-79.103984 10.261331-108.394644 31.295993-110.10131 37.802659A21.077329 21.077329 0 0 1 192.000173 341.333262a149.098636 149.098636 0 0 0-149.333302 149.333302v42.666658H0.000213v-42.666658a191.765293 191.765293 0 0 1 175.935964-191.338626c20.287996-37.589326 94.826647-53.034656 141.95197-59.157321a658.943863 658.943863 0 0 1 71.978652-5.333333c19.989329-33.38666 87.317315-45.845324 143.210637-42.154657 50.389323 3.925333 86.869315 19.690663 100.757312 42.154657 77.695984 1.770666 189.162627 17.194663 214.335955 64.490654A192.277293 192.277293 0 0 1 1024 490.666564v63.999987a106.794644 106.794644 0 0 1-106.666644 106.666645z" fill="#2A3244" p-id="1588"></path><path d="M810.666711 319.999933h42.666658v63.999987h-42.666658zM384.000133 255.999947h42.666658v127.999973h-42.666658zM597.333422 255.999947h42.666658v127.999973h-42.666658zM746.666724 661.333196H448.00012v-42.666658h298.666604a85.333316 85.333316 0 0 0 0-170.666631 84.415982 84.415982 0 0 0-54.463988 19.647996c-1.877333 1.728-3.477333 3.157333-5.034666 4.778665a21.333329 21.333329 0 0 1-30.165327 0.128 86.719982 86.719982 0 0 0-114.133309-4.906665c-1.877333 1.728-3.477333 3.157333-5.034666 4.778665a21.333329 21.333329 0 0 1-30.165327 0.128A84.415982 84.415982 0 0 0 448.00012 447.999907v-42.666658a126.485307 126.485307 0 0 1 74.666651 24.106662 130.602639 130.602639 0 0 1 149.333302 0A127.999973 127.999973 0 1 1 746.666724 661.333196z" fill="#2A3244" p-id="1589"></path><path d="M746.666724 533.333222h-42.666657a65.258653 65.258653 0 0 0-32.789327-62.122654A26.666661 26.666661 0 0 0 661.333409 469.333236v-42.666658a68.821319 68.821319 0 0 1 24.981328 4.650665A105.322645 105.322645 0 0 1 746.666724 533.333222zM597.333422 533.333222h-42.666658a65.258653 65.258653 0 0 0-32.789326-62.122654A26.666661 26.666661 0 0 0 512.000107 469.333236v-42.666658a68.821319 68.821319 0 0 1 24.981328 4.650665A105.322645 105.322645 0 0 1 597.333422 533.333222zM298.666818 447.999907h42.666658v42.666657h-42.666658zM149.333516 426.666578h42.666657v42.666658H149.333516zM51.200203 377.877255A170.495964 170.495964 0 0 1 163.200179 85.781315l1.706667 42.666658A127.807973 127.807973 0 0 0 81.066863 347.455928zM341.333476 255.999947h-42.666658a128.149307 128.149307 0 0 0-127.999974-127.999974V85.333316a168.682632 168.682632 0 0 1 87.893315 24.447994A171.157298 171.157298 0 0 1 341.333476 255.999947z" fill="#2A3244" p-id="1590"></path><path d="M554.666764 234.666618h-42.666657a87.850648 87.850648 0 0 0-1.344-16.703997A128.17064 128.17064 0 0 0 384.000133 106.666644a126.911974 126.911974 0 0 0-89.599981 36.543993l-29.86666-30.421327A170.495964 170.495964 0 0 1 552.768098 211.199956 125.695974 125.695974 0 0 1 554.666764 234.666618zM128.000187 191.99996H85.333529c0-54.421322 32.575993-100.010646 75.775984-106.047978C164.778846 85.589316 167.872178 85.333316 170.666844 85.333316v42.666657c-1.450666 0-3.071999 0.170667-4.522665 0.32C145.06685 131.263973 128.000187 159.295967 128.000187 191.99996z" fill="#2A3244" p-id="1591"></path><path d="M192.000173 191.99996H149.333516a85.333316 85.333316 0 0 1 85.333315-85.333316h21.333329v42.666658h-21.333329a42.666658 42.666658 0 0 0-42.666658 42.666658zM938.666684 234.666618h-42.666657a65.04532 65.04532 0 0 1 29.055994-52.031989c10.879998-9.045331 13.610664-12.245331 13.610663-19.007996 0-7.231998-3.327999-10.666664-13.674663-19.199996A65.066653 65.066653 0 0 1 896.000027 92.373314a64.362653 64.362653 0 0 1 29.141327-51.839989c10.175998-8.533332 13.525331-11.946664 13.52533-19.199996h42.666658a65.36532 65.36532 0 0 1-28.927994 51.967989c-10.858664 8.895998-13.738664 12.223997-13.738664 19.071996 0 7.231998 3.327999 10.666664 13.674664 19.199996A65.066653 65.066653 0 0 1 981.333342 163.626633a64.767987 64.767987 0 0 1-28.97066 51.839989c-10.346665 8.533332-13.695997 11.967998-13.695998 19.199996zM440.789455 909.845144l-28.245328-31.999994 116.458643-103.039978a15.25333 15.25333 0 0 0 0-24.085328 28.607994 28.607994 0 0 0-35.391993 0l-52.906655 46.71999A21.333329 21.333329 0 0 1 405.333462 781.439837v-18.773329a19.199996 19.199996 0 0 0-20.906662-15.999997h-119.082642l-36.266659 31.999993-28.159994-31.999993 42.218658-37.333325a21.333329 21.333329 0 0 1 14.143997-5.333333h127.14664a63.999987 63.999987 0 0 1 58.133321 34.943993l22.890662-20.223996a72.021318 72.021318 0 0 1 91.733314 0 57.855988 57.855988 0 0 1 0 88.149315z" fill="#2A3244" p-id="1592"></path><path d="M579.840093 1023.999787H256.426827a21.525329 21.525329 0 0 1-14.634664-5.781332l-43.093324-40.533325 29.269327-31.082661L264.874825 981.333129h309.162602L904.533358 787.583836a21.866662 21.866662 0 0 0 12.799998-19.199996 19.989329 19.989329 0 0 0-6.655999-14.93333 27.349328 27.349328 0 0 0-27.733328-5.013333L610.880086 879.786483a21.333329 21.333329 0 0 1-18.559996 0l-86.399982-41.813324 18.581329-38.399992 77.119984 37.333325 263.978612-127.359973a68.095986 68.095986 0 0 1 74.325318 12.906664A62.35732 62.35732 0 0 1 960.000013 768.426507a64.127987 64.127987 0 0 1-34.837326 56.426654l-334.52793 196.266626a21.333329 21.333329 0 0 1-10.794664 2.88z" fill="#2A3244" p-id="1593"></path><path d="M213.333502 1023.999787H21.333542a21.333329 21.333329 0 0 1-21.333329-21.333329V703.999853a21.333329 21.333329 0 0 1 21.333329-21.333329h191.99996a21.333329 21.333329 0 0 1 21.333329 21.333329v298.666605a21.333329 21.333329 0 0 1-21.333329 21.333329z m-170.666631-42.666658h149.333302V725.333182H42.666871z" fill="#2A3244" p-id="1594"></path></svg>